<svg id="Layer_1" data-name="Layer 1" xmlns="http://www.w3.org/2000/svg" viewBox="0 0 293.3 54.7"><defs><style>.cls-1{fill:#fff;}</style></defs><title>logo-white-new</title><path class="cls-1" d="M286.5,290.6c0,8.7-1.3,15.3-14.4,15.3S257,299.5,257,290.6V269.5c0-4.7-2-5.2-5.5-5.2V263h16.6v1.3c-3.4,0-5.5.4-5.5,5.2v21.1c0,6.5,1.5,12.8,9.7,12.8s10.6-5.2,10.6-12.8V269.5c0-4.7-2.1-5.2-5.5-5.2V263h14.6v1.3c-3.5,0-5.5.4-5.5,5.2v21.1Z" transform="translate(-251.5 -262.4)"/><path class="cls-1" d="M321.6,304.1a32,32,0,0,1-11.3,1.7c-12.7,0-18.7-9.6-18.7-23.1,0-11.7,3.8-20.3,17.3-20.3a46.2,46.2,0,0,1,12.2,1.8l0.6,9.9H320c-0.8-3.5-3.4-9.2-11.2-9.2-10.2,0-11,10.8-11,17.3,0,8.2,1.8,20.8,15.6,20.8a19.9,19.9,0,0,0,8.2-1.6v2.7Z" transform="translate(-251.5 -262.4)"/><path class="cls-1" d="M355.5,272.1c-0.6-3.4-3.1-7.3-9.9-7.3-4.2,0-8,2.7-8,6.9s7.5,7.5,13,10.7,8.3,5.5,8.3,11.5c0,8-7,11.8-15.6,11.8a69.9,69.9,0,0,1-10.9-1.2l-0.4-8.9h1.6c0.5,3.4,3.5,7.3,10.3,7.3s9.2-3.6,9.2-8c0-6.8-10.5-8.9-16.4-13.4a9.5,9.5,0,0,1-4.1-8.5c0-7.6,6.3-10.7,14.2-10.7a45.1,45.1,0,0,1,9.8,1.1l0.4,8.7h-1.6Z" transform="translate(-251.5 -262.4)"/><path class="cls-1" d="M385,305.2a16.2,16.2,0,0,1-4.1.5c-3.3,0-4.2-1.7-4.2-4.1h-0.1a9,9,0,0,1-8,4.1c-3.9,0-6.8-2.7-6.8-6.4,0-8.2,10.6-8.2,14.9-8.6v-2.1c0-3.9-.1-8.1-4.8-8.1s-3.9,1.5-3.9,3.3a2.7,2.7,0,0,1-2.6,2.9,2.5,2.5,0,0,1-2.7-2.5c0-3.7,5.5-5.5,9.3-5.5,7.7,0,9.1,3.7,9.1,8.9v14c0,2,.7,2.6,2.4,2.6l1.5-.2v1.2Zm-8.3-12.6c-2.6.1-9.9,0.6-9.9,5.8,0,2.9,1.9,4.9,3.8,4.9,3.7,0,6-3.5,6-7.4v-3.3Z" transform="translate(-251.5 -262.4)"/><path class="cls-1" d="M386.2,304.2c2.4,0,4.3-.5,4.3-4.2V284.7c0-3.4-2.6-3.5-4.3-3.7v-1l8.7-1.3v7.4H395c0.8-2.1,3.3-7.4,8.9-7.4s6.5,3.3,6.5,8.5v12.8c0,3.7,1.9,4.2,4.3,4.2v1H401.7v-1c2.4,0,4.3-.5,4.3-4.2V288.5c0-4.8-.1-7-3.8-7s-7.4,6.4-7.4,11.7v6.9c0,3.7,1.9,4.2,4.3,4.2v1H386.2v-1Z" transform="translate(-251.5 -262.4)"/><path class="cls-1" d="M421.1,303.9c3.4,0,5.5-.4,5.5-5.2V269.5c0-4.7-2.1-5.2-5.5-5.2V263h14.8c10.5,0,21.6,2.3,21.6,21.1s-11.7,21-21.6,21H421.1v-1.3Zm11.1-6.5c0,4.6.5,5.3,3.7,5.3,10.9,0,15.4-5.8,15.4-18.5s-3.4-18.7-15.4-18.7c-3.2,0-3.7.4-3.7,5.3v26.6Z" transform="translate(-251.5 -262.4)"/><path class="cls-1" d="M459.9,304.2c2.4,0,4.3-.5,4.3-4.2V284.7c0-3.4-2.6-3.5-4.3-3.7v-1l8.7-1.3v21.3c0,3.7,1.9,4.2,4.3,4.2v1h-13v-1Zm3.1-33.9a3.2,3.2,0,1,1,3.2,3.2A3.2,3.2,0,0,1,463,270.3Z" transform="translate(-251.5 -262.4)"/><path class="cls-1" d="M493.2,304.7a18,18,0,0,1-6.7,1c-8.7,0-13.6-4.8-13.6-14.2s3.3-12.8,11.4-12.8c5.1,0,9.6,2.8,9.6,9.3v1.2H477.6c0,4.7,2.3,14.4,11.7,14.4a9.3,9.3,0,0,0,3.9-.7v1.8Zm-4.3-17.3c0-3-1-6.9-5.3-6.9s-6,4.8-6,6.9h11.4Z" transform="translate(-251.5 -262.4)"/><path class="cls-1" d="M512.3,300.7c2.7,0,8.9.1,8.9,6.4s-6.3,10-13.8,10c-5.5,0-11.3-2.1-11.3-7.2,0-3.5,2.6-5,4.4-5.9a4.4,4.4,0,0,1-2.4-4c0-2.1,1.8-4.2,2.4-4.9-1.3-1.1-3.3-2.8-3.3-7.5,0-7.3,5.3-8.8,10.6-8.8a10.9,10.9,0,0,1,5.8,1.4c0.9-2.1,2.2-6,5.7-6a2.5,2.5,0,0,1,2.7,2.7,2.4,2.4,0,0,1-2.6,2.5c-1.5,0-1.8-.8-2.5-0.8s-1.7,1.6-2,2.5a9.5,9.5,0,0,1,2.5,6.8c0,5.7-3.5,8.9-10.3,8.9a12.4,12.4,0,0,1-5.1-.8,4.1,4.1,0,0,0-1,2.5c0,2.3,2.8,2.3,4.6,2.3h6.6Zm-9.7,4c-1.1.8-2.7,1.8-2.7,4.3s3,6.2,7.9,6.2,9.9-2.6,9.9-6.7-2.4-3.8-5.2-3.8h-9.8Zm4.9-9.8c4.7,0,5.4-3.7,5.4-6.7s-1.5-7.6-5.5-7.6-5.3,3.3-5.3,6.5S503.4,294.9,507.4,294.9Z" transform="translate(-251.5 -262.4)"/><path class="cls-1" d="M521.3,292.2c0-8.4,4.6-13.5,11.8-13.5s11.8,5.1,11.8,13.5-4.6,13.5-11.8,13.5S521.3,300.7,521.3,292.2ZM533,303.9c5.6,0,6.8-7,6.8-11.7s-1.1-11.7-6.8-11.7-6.8,7-6.8,11.7S527.4,303.9,533,303.9Z" transform="translate(-251.5 -262.4)"/><g id="line"><path class="cls-1" d="M493.3,314.9H251.5v1.4H494.6A9.1,9.1,0,0,1,493.3,314.9Z" transform="translate(-251.5 -262.4)"/><path class="cls-1" d="M544.3,314.9H522.1l-1.7,1.4h23.9v-1.4Z" transform="translate(-251.5 -262.4)"/></g></svg>